<svg xmlns="http://www.w3.org/2000/svg" aria-hidden="true" style="position:absolute;width:0;height:0;overflow:hidden"><defs><symbol id="icon-arrow-left" viewBox="0 0 32 32"><path fill="#fff" d="M18.599 30.679 7.115 19.129a4.46 4.46 0 0 1-.96-4.846c.222-.54.549-1.03.96-1.442l11.484-11.55c2.793-2.765 7.582-.803 7.582 3.166v23.056c0 4.014-4.789 5.976-7.582 3.166" style="fill:var(--color1, #fff)"/></symbol><symbol id="icon-arrow-right" viewBox="0 0 32 32"><path fill="#fff" d="m13.401 30.679 11.485-11.55a4.46 4.46 0 0 0 .96-4.846 4.4 4.4 0 0 0-.96-1.442L13.401 1.291C10.607-1.474 5.819.488 5.819 4.457v23.056c0 4.014 4.789 5.976 7.582 3.166" style="fill:var(--color1, #fff)"/></symbol><symbol id="icon-caret" viewBox="0 0 32 32"><path fill="#6a6a6a" d="M16 3c-2.571 0-5.085.762-7.222 2.191S4.974 8.65 3.99 11.025a13.005 13.005 0 0 0 2.818 14.167 13.002 13.002 0 0 0 20.001-1.97A13 13 0 0 0 29 16 13.02 13.02 0 0 0 16 3m0 24a11 11 0 0 1-10.162-6.791A10.999 10.999 0 1 1 27 16a11.02 11.02 0 0 1-11 11m5.707-13.707a1 1 0 0 1 .293.708 1 1 0 0 1-.293.708l-5 5a1 1 0 0 1-.708.293 1 1 0 0 1-.708-.293l-5-5a1 1 0 1 1 1.414-1.414l4.293 4.294 4.292-4.294a1 1 0 0 1 .708-.293 1 1 0 0 1 .708.293z" style="fill:var(--color2, #6a6a6a)"/></symbol><symbol id="icon-check" viewBox="0 0 32 32"><path d="M30.805 3.246c.246.186.363.399.445.691.05.438-.137.715-.399 1.05l-.164.2-.095.117q-.329.405-.664.805l-.455.552q-.487.594-.984 1.179-.346.407-.681.823a10 10 0 0 1-.317.363c-.13.142-.13.142-.109.269.078.203.193.38.308.563 2.142 3.497 2.591 7.808 1.647 11.756-.704 2.796-2.123 5.279-4.464 7.01l-.108.08c-3.364 2.471-7.982 2.492-11.948 1.903-1.546-.247-3.006-.668-4.382-1.421l-.121-.066a8 8 0 0 1-1.629-1.184l-.109-.101c-1.274-1.19-2.083-2.631-2.641-4.274l-.046-.134c-.196-.575-.32-1.161-.434-1.757l-.038-.198c-.208-1.147-.255-2.295-.251-3.458v-.199c.003-.972.029-1.921.207-2.879l.03-.175c.456-2.555 1.554-4.938 3.345-6.825l.088-.094c1.697-1.807 4.028-2.882 6.428-3.395l.172-.037c.931-.187 1.865-.249 2.812-.244h.151c3.42.015 6.892 1.03 9.416 3.418.11.114.11.114.245.101q.128-.142.246-.293l.153-.191.081-.101q.206-.25.419-.497.356-.418.691-.852c.262-.338.536-.664.817-.987q.381-.444.735-.91c.423-.549.889-.967 1.601-.61zM13.812 6.313l-.155.032c-2.027.439-3.849 1.339-5.345 2.78l-.131.119c-1.932 1.809-2.949 4.811-3.063 7.407q-.005.244-.006.489l-.001.182-.002.58v.2c.003 2.983.544 6.028 2.703 8.234 2.334 2.3 5.962 2.629 9.067 2.616 2.559-.032 5.387-.514 7.371-2.265l.157-.134c2.118-1.849 3.024-4.591 3.381-7.307l.049-.356c.366-2.522-.291-5.896-1.775-8.016l-.125-.063-.095.117q-.48.589-.98 1.16-.305.35-.597.711c-.22.272-.452.532-.688.791q-.216.246-.422.502c-.226.279-.462.546-.704.811q-.213.242-.414.494c-.26.322-.536.626-.817.929a27 27 0 0 0-.762.867q-.543.64-1.116 1.253-.31.332-.608.675c-.231.263-.469.519-.706.776l-.285.311c-.325.355-.654.702-.997 1.039a6 6 0 0 0-.328.365c-.537.624-1.273 1.435-2.121 1.535-.825-.081-1.32-.548-1.832-1.164l-.281-.359-.135-.165c-.874-1.093-1.628-2.311-2.346-3.51l-.159-.261c-.28-.453-.472-.836-.361-1.377a1.02 1.02 0 0 1 .422-.492c.346-.12.576-.12.909.011.338.204.496.565.684.899l.247.425.122.21c.23.391.48.77.73 1.149l.2.307a23 23 0 0 0 1.686 2.241l.08-.069.111-.095.121-.104q.117-.1.236-.197c.237-.195.435-.404.634-.638.161-.181.332-.351.505-.521.238-.236.468-.474.685-.73.183-.209.375-.411.565-.614.263-.28.523-.561.774-.852q.18-.205.363-.405.34-.379.668-.766.36-.424.738-.832c.264-.284.511-.579.754-.881q.22-.263.453-.513.308-.335.594-.687c.286-.352.388-.464.594-.688.251-.273.487-.555.721-.844.28-.341.572-.672.862-1.004q.259-.298.515-.598l.092-.107q.255-.297.497-.603c-.45-1.058-2.232-1.83-3.222-2.248-1.226-.49-2.533-.737-3.841-.877l-.219-.025c-1.214-.112-2.462-.102-3.657.15z"/></symbol><symbol id="icon-close" viewBox="0 0 32 32"><path fill="#6a6a6a" d="m8.532 25.333-1.867-1.867 7.467-7.467-7.467-7.467 1.867-1.867 7.467 7.467 7.467-7.467 1.867 1.867-7.467 7.467 7.467 7.467-1.867 1.867-7.467-7.467z" style="fill:var(--color2, #6a6a6a)"/></symbol><symbol id="icon-menu" viewBox="0 0 32 32"><path d="M4 24v-2.667h24V24zm0-6.667v-2.667h24v2.667zm0-6.666V8h24v2.667z"/></symbol><symbol id="icon-playstore" viewBox="0 0 32 32"><path fill="#ea4335" d="M15.066 15.282 2.003 29.341l.002.009C2.406 30.877 3.78 32 5.412 32c.653 0 1.265-.179 1.79-.493l.042-.025 14.703-8.603z" style="fill:var(--color3, #ea4335)"/><path fill="#fbbc04" d="m28.28 12.888-.012-.009-6.348-3.731-7.151 6.453 7.177 7.276 6.314-3.694a3.59 3.59 0 0 0 1.859-3.154 3.58 3.58 0 0 0-1.838-3.142z" style="fill:var(--color4, #fbbc04)"/><path fill="#4285f4" d="M2.003 2.658a3.5 3.5 0 0 0-.12.921v24.843q.001.48.121.919l13.51-13.699z" style="fill:var(--color5, #4285f4)"/><path fill="#34a853" d="m15.163 16 6.76-6.854L7.237.512A3.5 3.5 0 0 0 5.414.001c-1.632 0-3.008 1.126-3.409 2.654l-.001.004 13.159 13.342z" style="fill:var(--color6, #34a853)"/></symbol></defs></svg>